<?xml version="1.0" encoding="UTF-8"?>
<!-- Creator: CorelDRAW -->
<svg xmlns="http://www.w3.org/2000/svg" xml:space="preserve"   version="1.1" style="shape-rendering:geometricPrecision; text-rendering:geometricPrecision; image-rendering:optimizeQuality; fill-rule:evenodd; clip-rule:evenodd"
viewBox="0 0 13888.89 13888.89"
 xmlns:xlink="http://www.w3.org/1999/xlink"
 >
 <defs>
 </defs>
 <g id="Layer_x0020_1">
  <metadata id="CorelCorpID_0Corel-Layer"/>
  <polygon fill="#007BFF" points="1494.01,10808.25 1244.93,11290 1244.93,11527.8 1069.66,11527.8 1069.66,11290 820.58,10808.25 1019.43,10808.25 1158.83,11109.61 1297.2,10808.25 "/>
  <path fill="#007BFF" d="M1736.93 10808.25l0 430.5c0,43.06 10.58,76.19 31.78,99.43 21.17,23.24 52.26,34.85 93.26,34.85 41,0 72.43,-11.61 94.3,-34.85 21.86,-23.24 32.8,-56.37 32.8,-99.43l0 -430.5 175.29 0 0 429.49c0,64.22 -13.68,118.56 -41,162.97 -27.35,44.42 -64.07,77.89 -110.2,100.44 -46.12,22.54 -97.56,33.82 -154.26,33.82 -56.72,0 -107.47,-11.1 -152.21,-33.31 -44.76,-22.19 -80.12,-55.69 -106.09,-100.46 -25.97,-44.75 -38.94,-99.25 -38.94,-163.47l0 -429.49 175.28 0z"/>
  <path fill="#007BFF" d="M2462.61 11132.15l108.64 0c32.13,0 56.21,-7.83 72.28,-23.57 16.04,-15.72 24.08,-37.93 24.08,-66.63 0,-27.33 -8.04,-48.86 -24.08,-64.58 -16.07,-15.72 -40.15,-23.57 -72.28,-23.57l-108.64 0 0 178.35zm191.67 395.65l-149.64 -271.63 -42.03 0 0 271.63 -175.28 0 0 -719.54 294.18 0c56.71,0 105.06,9.92 145.04,29.71 39.97,19.83 69.85,46.99 89.68,81.49 19.8,34.51 29.72,72.94 29.72,115.32 0,47.85 -13.5,90.56 -40.48,128.13 -27,37.58 -66.81,64.24 -119.42,79.96l166.06 284.94 -197.83 0z"/>
  <polygon fill="#007BFF" points="3130.9,11527.81 2955.63,11527.81 2955.63,10808.26 3130.9,10808.26 "/>
  <path fill="#007BFF" d="M3274.41 10976.85c30.75,-55.68 73.62,-99.07 128.64,-130.15 55,-31.09 117.36,-46.64 187.06,-46.64 85.42,0 158.53,22.53 219.35,67.64 60.82,45.09 101.49,106.59 121.99,184.52l-192.71 0c-14.35,-30.08 -34.7,-52.96 -60.99,-68.69 -26.3,-15.71 -56.21,-23.57 -89.68,-23.57 -53.99,0 -97.74,18.79 -131.21,56.37 -33.49,37.58 -50.22,87.81 -50.22,150.68 0,62.87 16.74,113.1 50.22,150.67 33.47,37.58 77.22,56.38 131.21,56.38 33.47,0 63.37,-7.85 89.68,-23.59 26.29,-15.69 46.64,-38.59 60.99,-68.65l192.71 0c-20.5,77.89 -61.17,139.22 -121.99,183.97 -60.82,44.76 -133.93,67.14 -219.35,67.14 -69.69,0 -132.06,-15.54 -187.06,-46.64 -55.02,-31.09 -97.89,-74.32 -128.64,-129.67 -30.75,-55.35 -46.13,-118.54 -46.13,-189.61 0,-71.07 15.37,-134.44 46.13,-190.15z"/>
  <path fill="#007BFF" d="M4441.88 11265.4l-89.18 -263.43 -88.15 263.43 177.33 0zm45.1 135.31l-268.56 0 -43.04 127.09 -183.48 0 260.36 -719.56 202.94 0 260.36 719.56 -185.53 0 -43.06 -127.09z"/>
  <path fill="#007BFF" d="M4969.76 11132.15l108.64 0c32.13,0 56.21,-7.83 72.28,-23.57 16.04,-15.72 24.08,-37.93 24.08,-66.63 0,-27.33 -8.04,-48.86 -24.08,-64.58 -16.07,-15.72 -40.15,-23.57 -72.28,-23.57l-108.64 0 0 178.35zm191.67 395.65l-149.64 -271.63 -42.03 0 0 271.63 -175.28 0 0 -719.54 294.18 0c56.71,0 105.06,9.92 145.04,29.71 39.97,19.83 69.85,46.99 89.68,81.49 19.8,34.51 29.72,72.94 29.72,115.32 0,47.85 -13.5,90.56 -40.48,128.13 -27,37.58 -66.81,64.24 -119.42,79.96l166.06 284.94 -197.83 0z"/>
  <polygon fill="#007BFF" points="5980.4,10808.25 5980.4,10948.67 5789.75,10948.67 5789.75,11527.8 5614.47,11527.8 5614.47,10948.67 5423.83,10948.67 5423.83,10808.25 "/>
  <polygon fill="#007BFF" points="6461.11,10948.67 6461.11,11094.22 6695.83,11094.22 6695.83,11229.52 6461.11,11229.52 6461.11,11387.38 6726.58,11387.38 6726.58,11527.8 6285.83,11527.8 6285.83,10808.25 6726.58,10808.25 6726.58,10948.67 "/>
  <polygon fill="#007BFF" points="7015.62,11392.5 7245.21,11392.5 7245.21,11527.8 6840.34,11527.8 6840.34,10808.24 7015.62,10808.24 "/>
  <polygon fill="#007BFF" points="7504.53,10948.67 7504.53,11094.22 7739.24,11094.22 7739.24,11229.52 7504.53,11229.52 7504.53,11387.38 7769.99,11387.38 7769.99,11527.8 7329.26,11527.8 7329.26,10808.25 7769.99,10808.25 7769.99,10948.67 "/>
  <path fill="#007BFF" d="M7900.17 10976.85c30.75,-55.68 73.63,-99.07 128.64,-130.15 55,-31.09 117.36,-46.64 187.06,-46.64 85.42,0 158.54,22.53 219.35,67.64 60.81,45.09 101.47,106.59 121.98,184.52l-192.7 0c-14.35,-30.08 -34.7,-52.96 -60.99,-68.69 -26.31,-15.71 -56.21,-23.57 -89.68,-23.57 -53.98,0 -97.74,18.79 -131.21,56.37 -33.48,37.58 -50.22,87.81 -50.22,150.68 0,62.87 16.74,113.1 50.22,150.67 33.47,37.58 77.22,56.38 131.21,56.38 33.47,0 63.37,-7.85 89.68,-23.59 26.29,-15.69 46.64,-38.59 60.99,-68.65l192.7 0c-20.51,77.89 -61.18,139.22 -121.98,183.97 -60.81,44.76 -133.93,67.14 -219.35,67.14 -69.7,0 -132.06,-15.54 -187.06,-46.64 -55.02,-31.09 -97.89,-74.32 -128.64,-129.67 -30.76,-55.35 -46.12,-118.54 -46.12,-189.61 0,-71.07 15.36,-134.44 46.12,-190.15z"/>
  <polygon fill="#007BFF" points="9182.44,10808.25 9182.44,10948.67 8991.79,10948.67 8991.79,11527.8 8816.52,11527.8 8816.52,10948.67 8625.87,10948.67 8625.87,10808.25 "/>
  <path fill="#007BFF" d="M9445.85 11132.15l108.64 0c32.12,0 56.21,-7.83 72.28,-23.57 16.04,-15.72 24.08,-37.93 24.08,-66.63 0,-27.33 -8.04,-48.86 -24.08,-64.58 -16.07,-15.72 -40.15,-23.57 -72.28,-23.57l-108.64 0 0 178.35zm191.67 395.65l-149.64 -271.63 -42.03 0 0 271.63 -175.28 0 0 -719.54 294.18 0c56.71,0 105.07,9.92 145.04,29.71 39.97,19.83 69.85,46.99 89.68,81.49 19.81,34.51 29.72,72.94 29.72,115.32 0,47.85 -13.5,90.56 -40.49,128.13 -27,37.58 -66.81,64.24 -119.42,79.96l166.06 284.94 -197.83 0z"/>
  <path fill="#007BFF" d="M10417.04 11317.67c34.49,-38.25 51.75,-88.82 51.75,-151.69 0,-63.57 -17.26,-114.31 -51.75,-152.21 -34.51,-37.93 -80.47,-56.91 -137.87,-56.91 -58.08,0 -104.37,18.81 -138.87,56.39 -34.52,37.58 -51.78,88.5 -51.78,152.72 0,63.54 17.26,114.28 51.78,152.2 34.5,37.93 80.79,56.89 138.87,56.89 57.4,0 103.36,-19.12 137.87,-57.4zm-323.89 170.15c-56.39,-31.42 -101.15,-75.35 -134.29,-131.71 -33.17,-56.39 -49.71,-119.76 -49.71,-190.14 0,-70.39 16.54,-133.6 49.71,-189.63 33.14,-56.03 77.91,-99.76 134.29,-131.21 56.36,-31.42 118.38,-47.15 186.02,-47.15 67.67,0 129.67,15.74 186.04,47.15 56.37,31.44 100.79,75.18 133.26,131.21 32.43,56.03 48.68,119.24 48.68,189.63 0,70.37 -16.4,133.75 -49.19,190.14 -32.81,56.36 -77.24,100.29 -133.26,131.71 -56.04,31.43 -117.86,47.15 -185.53,47.15 -67.64,0 -129.65,-15.72 -186.02,-47.15z"/>
  <polygon fill="#007BFF" points="11388.22,11527.8 11212.95,11527.8 10919.8,11083.98 10919.8,11527.8 10744.52,11527.8 10744.52,10808.26 10919.8,10808.26 11212.95,11254.12 11212.95,10808.26 11388.22,10808.26 "/>
  <polygon fill="#007BFF" points="11690.6,11527.81 11515.32,11527.81 11515.32,10808.26 11690.6,10808.26 "/>
  <path fill="#007BFF" d="M11834.1 10976.85c30.75,-55.68 73.63,-99.07 128.64,-130.15 55,-31.09 117.35,-46.64 187.06,-46.64 85.42,0 158.51,22.53 219.36,67.64 60.8,45.09 101.47,106.59 121.96,184.52l-192.68 0c-14.36,-30.08 -34.69,-52.96 -61,-68.69 -26.31,-15.71 -56.21,-23.57 -89.68,-23.57 -54,0 -97.74,18.79 -131.21,56.37 -33.48,37.58 -50.22,87.81 -50.22,150.68 0,62.87 16.74,113.1 50.22,150.67 33.47,37.58 77.21,56.38 131.21,56.38 33.47,0 63.37,-7.85 89.68,-23.59 26.31,-15.69 46.64,-38.59 61,-68.65l192.68 0c-20.49,77.89 -61.15,139.22 -121.96,183.97 -60.85,44.76 -133.94,67.14 -219.36,67.14 -69.71,0 -132.06,-15.54 -187.06,-46.64 -55.02,-31.09 -97.89,-74.32 -128.64,-129.67 -30.75,-55.35 -46.12,-118.54 -46.12,-189.61 0,-71.07 15.37,-134.44 46.12,-190.15z"/>
  <path fill="#007BFF" d="M12717.64 11509.35c-41.68,-17.07 -75,-42.35 -99.93,-75.83 -24.96,-33.47 -38.09,-73.82 -39.46,-120.97l186.54 0c2.72,26.65 11.96,47 27.68,61 15.71,14.02 36.21,21 61.5,21 25.97,0 46.46,-5.97 61.5,-17.93 15.02,-11.93 22.56,-28.52 22.56,-49.71 0,-17.76 -5.98,-32.46 -17.94,-44.07 -11.96,-11.63 -26.65,-21.18 -44.07,-28.71 -17.43,-7.5 -42.21,-16.04 -74.32,-25.61 -46.47,-14.36 -84.41,-28.72 -113.78,-43.06 -29.39,-14.35 -54.67,-35.53 -75.85,-63.56 -21.19,-28.02 -31.76,-64.57 -31.76,-109.67 0,-66.97 24.24,-119.43 72.76,-157.35 48.51,-37.92 111.72,-56.89 189.63,-56.89 79.26,0 143.14,18.97 191.68,56.89 48.51,37.92 74.47,90.72 77.9,158.36l-189.63 0c-1.37,-23.22 -9.92,-41.53 -25.64,-54.83 -15.71,-13.32 -35.87,-19.98 -60.46,-19.98 -21.19,0 -38.29,5.63 -51.25,16.9 -13,11.28 -19.47,27.53 -19.47,48.7 0,23.24 10.92,41.35 32.79,54.32 21.86,13 56.03,27 102.49,42.04 46.47,15.71 84.22,30.75 113.28,45.08 29.04,14.35 54.14,35.21 75.33,62.53 21.18,27.33 31.78,62.51 31.78,105.58 0,40.98 -10.43,78.24 -31.26,111.71 -20.86,33.5 -51.09,60.15 -90.71,79.96 -39.65,19.83 -86.46,29.74 -140.44,29.74 -52.61,0 -99.76,-8.54 -141.44,-25.64z"/>
  <path fill="#007BFF" d="M7615.33 1405.87l-2289.14 3595.2 -2172.49 -3595.2 -2327.98 0 0 103.38 3465.98 5354.03 0 3595.21 2017.42 0 0 -94.71 -1068.68 -687.92c-46.3,-29.87 -65.43,-86.64 -49,-137.43l-83.96 -38.68c-28.37,-13 -49.89,-36.46 -60.94,-64.68 -7.92,-10.32 -14.2,-21.82 -18.37,-34.52l-668.33 -2037.58c-11.36,-34.81 -6.28,-72.9 14.04,-103.37 20.32,-30.47 53.32,-50.04 89.93,-53.03l1845.32 -149.24 0 -194.06 3621.19 -5354.03 0 -103.38 -2314.98 0z"/>
  <path fill="#1E1E1E" d="M12935.46 1405.87l-2785.85 0 0 170.6 -1135.31 1678.76 2071.79 0c1021.33,0 1849.36,-828.03 1849.36,-1849.36z"/>
  <path fill="#1E1E1E" d="M11267 8596.27l-3247.74 0 0 -1823.67 3758.62 0c489.24,0 885.85,-396.61 885.85,-885.85 0,-244.68 -99.2,-466.07 -259.49,-626.36 -160.29,-160.29 -381.82,-259.33 -626.36,-259.33l-3758.62 0 0 -274.71 -1490.7 2204.14 0 109.06 82.46 -6.72c3.29,-0.29 6.43,-0.44 9.71,-0.44 29.87,0 58.86,11.19 80.97,31.67 10.9,10.02 19.72,22.11 26.14,35.11l20.47 0c-10.17,-17.48 -15.99,-37.94 -15.99,-59.61l0 -203.46c0,-66.03 53.47,-119.5 119.5,-119.5l208.85 0c33.9,0 64.68,14.18 86.33,36.89 21.82,-23.6 53.04,-38.24 87.7,-38.24l210.47 0c66.03,0 119.51,53.47 119.51,119.5l0 203.17c0,65.87 -53.48,119.5 -119.51,119.5l-76.47 0 0 18.53 108 0c66.03,0 119.5,53.47 119.5,119.5 0,13.9 0.15,27.64 0.15,41.39 0.15,4.63 0.15,9.25 0.15,13.89 8.96,0 16.43,-0.31 23.31,-0.6 4.18,-0.31 8.21,-0.44 11.94,-0.44 56.32,0 91.42,24.35 110.85,44.67 28.83,30.17 42.42,70.06 40.33,118.75 -0.75,18.68 -0.75,38.39 -0.46,59.3 0.15,25.41 0.31,51.54 -1.19,79.03 -3.43,66.03 -59.15,138.93 -136.68,142.06 -37.94,1.5 -75.14,1.65 -103.37,1.65 -14.93,0 -76.33,-0.3 -92.17,-0.3 -65.87,0 -119.5,-53.47 -119.5,-119.5l0 -56.32 -61.85 0c-65.87,0 -119.51,-53.63 -119.51,-119.52l0 -141.76 -111.3 0c-6.57,0 -12.98,-0.6 -19.26,-1.64l0 54.97c21.06,19.57 36.75,43.62 46.46,66.18 165.67,380.33 309.82,713.46 440.53,1018.04 349.11,127.57 703.6,258.14 1046.43,384.36l193.75 71.4c8.21,3 16.28,6.28 27.33,11.06l15.99 6.72c43.17,18.08 71.71,59.75 73.35,106.51 1.49,46.76 -24.5,90.08 -66.47,110.85l-459.96 228.25c1.35,40.04 -17.18,79.63 -52.58,103.53l-1391.94 940.52 6225.83 0 0 -13c0,-1021.33 -828.03,-1849.21 -1849.36,-1849.21z"/>
  <path fill="#1E1E1E" d="M4628.99 7448.7c669.11,-50.94 1330.33,-101.28 1991.74,-151.64l0 -145.19c-715.64,57.93 -1427.87,115.6 -2147.35,173.83 222.69,678.93 443.89,1353.26 668.33,2037.56 38.79,-39.9 76.76,-55.89 116.92,-56.14l0 -67.02c-210.21,-598.06 -419.2,-1192.68 -629.64,-1791.4z"/>
  <path fill="#1E1E1E" d="M7398.54 8550.96c-146.97,-342.44 -295.15,-684.36 -443.94,-1026.01 -6.18,-14.18 -20.37,-33.21 -32.78,-34.8 -36.5,-4.67 -73.96,-1.67 -118.76,-1.67 154.8,370.78 307,735.39 460.72,1103.63l167 0c-14.13,-9.61 -24.21,-22.46 -32.24,-41.15z"/>
  <path fill="#BCBEC0" d="M7696.93 9528.39c-98.57,63.67 -196.22,78.62 -303.03,27.08 -18.1,-8.74 -38.91,-11.86 -58.47,-17.58 0.26,-3.29 0.51,-6.59 0.78,-9.89 121.14,-54.22 242.24,-108.56 363.54,-162.43 7.17,-3.18 16.61,-5.22 23.94,-3.44 62.86,15.12 125.48,31.26 199.96,50.08 -82.96,41.83 -159.06,72.48 -226.72,116.18zm1006.64 -465.21c-415.94,-153.14 -831.83,-306.46 -1248.13,-458.7 -9.48,-3.47 -17.54,-7.54 -24.65,-12.37l-167 0c-670.71,216.75 -1335.68,431.65 -2005.15,648l0 67.02c34.09,-0.22 69.78,10.89 108.93,28.76 420.83,192.09 844.96,377.01 1268.28,563.67 25.14,11.08 39.92,25.64 46.33,52.61 10.15,42.71 23.46,84.67 36.47,130.64 674.92,-334.79 1345.33,-667.35 2023.33,-1003.65 -18.71,-7.81 -28.42,-12.29 -38.42,-15.97z"/>
  <path fill="#1E1E1E" d="M8215.61 9418.98c-512.15,346.04 -1024.32,692.08 -1538.57,1039.56 -457.67,-294.62 -914.81,-588.9 -1371.93,-883.19 1.33,-2.56 2.67,-5.1 4,-7.65 56.41,27.78 112.91,55.37 169.21,83.37 384.24,191.1 768.68,381.81 1152.25,574.24 35.06,17.59 61.24,16.31 95.19,-2.29 488.11,-267.39 977,-533.39 1465.72,-799.68 6.75,-3.68 13.82,-6.78 20.74,-10.14 1.13,1.93 2.26,3.86 3.39,5.79z"/>
  <path fill="#1E1E1E" d="M6679.64 10092.01c-509.19,-234.42 -1012.71,-466.21 -1522.21,-700.78 31.6,-19.81 56.86,-38.98 85.04,-51.75 12.06,-5.47 31.75,-1.22 45.26,4.74 416.56,183.61 831.76,370.35 1249.94,550.17 78.36,33.68 126.13,76.21 134.57,160.53 1.06,10.5 4.08,20.81 7.39,37.1z"/>
  <polygon fill="#007BFF" points="7036.85,7039.53 6851.83,7039.53 6851.83,6836.09 7060.69,6836.09 7060.69,7031.72 7234.74,7031.72 7234.74,6834.68 7445.19,6834.68 7445.19,7037.86 7249.15,7037.86 7249.15,7238.3 7036.85,7238.3 "/>
  <polygon fill="#007BFF" points="6688.17,7396.74 6688.17,7218.67 6898.22,7218.67 6898.22,7422.46 6716.12,7422.46 6716.12,7598.52 6504.76,7598.52 6504.76,7396.74 "/>
  <path fill="#007BFF" d="M7449.13 7675.34l0 -175.91 -181.36 0 0 -204.03 208.96 0c0,47.94 1.07,94.74 -0.42,141.46 -0.81,25.46 8.53,34.46 33.74,33.47 38.75,-1.52 77.69,1.24 116.39,-0.93 29.96,-1.68 38.33,10.03 37.1,38.5 -1.99,45.65 0.91,91.54 -1.52,137.15 -0.56,10.46 -14.04,28.64 -22.15,28.96 -61.93,2.43 -124.01,1.33 -190.74,1.33z"/>
  <path fill="#1E1E1E" d="M10745.54 12359.21l-7549 0c-125.18,0 -226.65,-101.47 -226.65,-226.67l0 -160.89c0,-125.18 101.47,-226.65 226.65,-226.65l7549 0c125.18,0 226.67,101.47 226.67,226.65l0 160.89c0,125.19 -101.49,226.67 -226.67,226.67z"/>
  <path fill="white" d="M3349.93 11997.69c9.29,-7.67 15.06,-18.32 17.26,-31.93 0.76,-3.72 1.13,-7.3 1.13,-10.76 0,-10.41 -3.41,-18.51 -10.21,-24.33 -6.82,-5.83 -17.15,-8.74 -31.02,-8.74l-46.8 0 -15.21 87.28 46.78 0c16.1,0 28.79,-3.83 38.07,-11.51zm44.94 5.21c-8.31,11.63 -19.87,21.11 -34.74,28.39 -14.85,7.32 -32.92,10.97 -54.22,10.97l-46.78 0 -18.58 104.74 -42.33 0 45.68 -258.12 89.14 0c26,0 45.68,5.76 59.04,17.26 13.37,11.53 20.06,26.57 20.06,45.14 0,3.22 -0.5,8.04 -1.49,14.48 -2.22,13.11 -7.48,25.5 -15.78,37.14z"/>
  <path fill="white" d="M3552.7 12102.6c11.75,-8.04 20.99,-18.7 27.67,-31.93 6.68,-13.24 10.03,-27.42 10.03,-42.53 0,-17.08 -4.83,-30.28 -14.49,-39.56 -9.67,-9.26 -21.79,-13.93 -36.39,-13.93 -14.37,0 -27.19,4.03 -38.44,12.08 -11.28,8.03 -20.06,18.82 -26.36,32.31 -6.32,13.5 -9.47,27.93 -9.47,43.26 0,16.59 4.5,29.47 13.56,38.61 9.03,9.18 20.72,13.76 35.08,13.76 14.11,0 27.04,-4.02 38.82,-12.08zm-89.69 36.97c-13.13,-7.2 -23.33,-17.33 -30.63,-30.47 -7.32,-13.11 -10.97,-28.1 -10.97,-44.93 0,-23.03 5.39,-44.07 16.15,-63.14 10.76,-19.07 25.63,-34.15 44.57,-45.32 18.94,-11.13 40.04,-16.71 63.33,-16.71 17.32,0 32.67,3.65 46.04,10.96 13.36,7.32 23.83,17.47 31.39,30.46 7.54,13 11.32,28.04 11.32,45.13 0,23.01 -5.57,44.08 -16.71,63.14 -11.14,19.07 -26.25,34.11 -45.32,45.13 -19.07,11.01 -40.22,16.53 -63.5,16.53 -17.33,0 -32.56,-3.6 -45.68,-10.76z"/>
  <polygon fill="white" points="3966.98,11942.35 3867.44,12146.99 3822.89,12146.99 3808.78,11995.84 3740.43,12146.99 3695.87,12146.99 3668.01,11942.35 3711.09,11942.35 3725.2,12106.87 3797.25,11942.35 3841.46,11942.35 3854.46,12106.15 3925.39,11942.35 "/>
  <path fill="white" d="M4127.78 12018.85c0,-13.6 -4.52,-24.39 -13.56,-32.31 -9.04,-7.93 -20.75,-11.89 -35.09,-11.89 -15.11,0 -28.72,4.83 -40.85,14.5 -12.14,9.65 -20.43,22.78 -24.89,39.36l113.65 0c0.48,-4.44 0.74,-7.67 0.74,-9.67zm20.61 -58.29c15.22,14.35 22.85,33.67 22.85,57.93 0,5.69 -0.63,12.5 -1.86,20.42 -0.98,5.46 -2.74,12.14 -5.21,20.06l-156.35 0c-0.24,1.74 -0.37,4.35 -0.37,7.81 0,14.59 4.53,26.25 13.57,34.91 9.03,8.68 20.85,13 35.46,13 23.03,0 40.72,-9.54 53.1,-28.59l45.69 0c-9.42,18.82 -23.28,34.24 -41.6,46.22 -18.32,12.03 -39.5,18.03 -63.5,18.03 -17.09,0 -32.07,-3.35 -44.94,-10.03 -12.87,-6.68 -22.9,-16.28 -30.08,-28.78 -7.18,-12.5 -10.78,-27.18 -10.78,-44.03 0,-7.17 0.75,-14.83 2.24,-23.02 3.71,-21.04 11.26,-39.56 22.65,-55.51 11.38,-15.99 25.57,-28.3 42.53,-36.97 16.94,-8.65 35.46,-13 55.51,-13 25.5,0 45.87,7.19 61.1,21.56z"/>
  <path fill="white" d="M4293.61 11949.41c11.51,-6.92 24.33,-10.4 38.43,-10.4l-7.79 43.82 -10.78 0c-16.33,0 -29.46,4.1 -39.36,12.26 -9.9,8.17 -16.83,22.28 -20.81,42.33l-19.32 109.57 -42.33 0 36.03 -204.64 42.35 0 -6.32 36.02c8.41,-12.36 18.37,-22.03 29.9,-28.96z"/>
  <polygon fill="white" points="4682.61,11888.87 4568.22,12053.4 4551.51,12146.98 4509.18,12146.98 4525.89,12053.4 4469.07,11888.87 4516.23,11888.87 4553.37,12014.77 4635.08,11888.87 "/>
  <path fill="white" d="M4803.88 12102.6c11.75,-8.04 20.99,-18.7 27.67,-31.93 6.68,-13.24 10.03,-27.42 10.03,-42.53 0,-17.08 -4.83,-30.28 -14.49,-39.56 -9.67,-9.26 -21.79,-13.93 -36.39,-13.93 -14.38,0 -27.2,4.03 -38.44,12.08 -11.28,8.03 -20.06,18.82 -26.36,32.31 -6.32,13.5 -9.47,27.93 -9.47,43.26 0,16.59 4.5,29.47 13.56,38.61 9.03,9.18 20.72,13.76 35.08,13.76 14.11,0 27.04,-4.02 38.82,-12.08zm-89.69 36.97c-13.13,-7.2 -23.33,-17.33 -30.63,-30.47 -7.32,-13.11 -10.97,-28.1 -10.97,-44.93 0,-23.03 5.39,-44.07 16.15,-63.14 10.78,-19.07 25.63,-34.15 44.57,-45.32 18.94,-11.13 40.04,-16.71 63.33,-16.71 17.32,0 32.67,3.65 46.04,10.96 13.36,7.32 23.83,17.47 31.39,30.46 7.54,13 11.32,28.04 11.32,45.13 0,23.01 -5.57,44.08 -16.71,63.14 -11.14,19.07 -26.25,34.11 -45.32,45.13 -19.07,11.01 -40.22,16.53 -63.5,16.53 -17.33,0 -32.56,-3.6 -45.68,-10.76z"/>
  <path fill="white" d="M5128.64 11942.35l-36.02 204.64 -42.33 0 4.07 -24.14c-8.17,8.42 -18.02,15.04 -29.52,19.86 -11.51,4.83 -23.35,7.25 -35.47,7.25 -21.54,0 -38.75,-5.82 -51.61,-17.46 -12.9,-11.62 -19.32,-28.08 -19.32,-49.4 0,-5.69 0.61,-12.5 1.85,-20.43l21.18 -120.32 41.96 0 -20.04 114.03c-1.01,6.93 -1.5,11.87 -1.5,14.83 0,13.63 3.76,24.03 11.33,31.21 7.54,7.18 18,10.76 31.37,10.76 15.6,0 28.83,-4.64 39.75,-13.92 10.88,-9.29 18.06,-22.72 21.53,-40.3l20.43 -116.61 42.33 0z"/>
  <path fill="white" d="M5250.27 11949.41c11.52,-6.92 24.33,-10.4 38.43,-10.4l-7.79 43.82 -10.78 0c-16.33,0 -29.46,4.1 -39.36,12.26 -9.9,8.17 -16.83,22.28 -20.8,42.33l-19.32 109.57 -42.33 0 36.03 -204.64 42.35 0 -6.32 36.02c8.42,-12.36 18.37,-22.03 29.9,-28.96z"/>
  <polygon fill="white" points="5784.13,11888.87 5661.94,12146.98 5614.03,12146.98 5593.97,11951.65 5502.24,12146.98 5454.69,12147.37 5427.22,11888.87 5472.17,11888.87 5488.5,12099.08 5583.58,11888.87 5631.11,11888.87 5648.19,12097.97 5738.82,11888.87 "/>
  <path fill="white" d="M5906.87 12102.6c11.75,-8.04 20.98,-18.7 27.67,-31.93 6.68,-13.24 10.03,-27.42 10.03,-42.53 0,-17.08 -4.83,-30.28 -14.48,-39.56 -9.67,-9.26 -21.79,-13.93 -36.39,-13.93 -14.37,0 -27.19,4.03 -38.44,12.08 -11.28,8.03 -20.06,18.82 -26.36,32.31 -6.32,13.5 -9.47,27.93 -9.47,43.26 0,16.59 4.5,29.47 13.56,38.61 9.03,9.18 20.72,13.76 35.09,13.76 14.11,0 27.04,-4.02 38.82,-12.08zm-89.7 36.97c-13.12,-7.2 -23.33,-17.33 -30.64,-30.47 -7.3,-13.11 -10.96,-28.1 -10.96,-44.93 0,-23.03 5.39,-44.07 16.15,-63.14 10.76,-19.07 25.62,-34.15 44.57,-45.32 18.94,-11.13 40.04,-16.71 63.33,-16.71 17.32,0 32.67,3.65 46.04,10.96 13.36,7.32 23.82,17.47 31.39,30.46 7.54,13 11.32,28.04 11.32,45.13 0,23.01 -5.57,44.08 -16.71,63.14 -11.14,19.07 -26.25,34.11 -45.32,45.13 -19.07,11.01 -40.22,16.53 -63.5,16.53 -17.33,0 -32.56,-3.6 -45.68,-10.76z"/>
  <path fill="white" d="M6112.24 11949.41c11.51,-6.92 24.33,-10.4 38.43,-10.4l-7.79 43.82 -10.76 0c-16.35,0 -29.47,4.1 -39.37,12.26 -9.91,8.17 -16.83,22.28 -20.81,42.33l-19.32 109.57 -42.33 0 36.03 -204.64 42.35 0 -6.32 36.02c8.42,-12.36 18.38,-22.03 29.91,-28.96z"/>
  <polygon fill="white" points="6243.89,11872.16 6195.23,12146.99 6152.9,12146.99 6201.55,11872.16 "/>
  <path fill="white" d="M6424.01 12029.26c0,-16.57 -4.9,-29.64 -14.68,-39.17 -9.78,-9.54 -21.96,-14.32 -36.57,-14.32 -10.89,0 -21.54,2.68 -31.94,8 -10.39,5.3 -19.43,13.12 -27.1,23.39 -7.69,10.28 -12.76,22.47 -15.24,36.59 -0.98,4.71 -1.48,9.79 -1.48,15.22 0,16.86 4.89,30.15 14.67,39.93 9.78,9.79 21.97,14.67 36.58,14.67 10.9,0 21.54,-2.74 31.94,-8.17 10.4,-5.44 19.43,-13.41 27.11,-23.96 7.67,-10.53 12.75,-22.83 15.24,-36.94 0.97,-4.71 1.47,-9.78 1.47,-15.24zm-146.51 -40.1c11.26,-15.85 25.07,-28.17 41.41,-36.96 16.33,-8.79 33.54,-13.19 51.61,-13.19 13.37,0 26,2.93 37.89,8.74 11.89,5.82 20.93,13.56 27.11,23.21l17.46 -98.8 42.71 0 -48.65 274.83 -42.71 0 5.57 -30.83c-8.92,10.15 -20,18.39 -33.24,24.7 -13.25,6.32 -27.79,9.48 -43.64,9.48 -15.6,0 -29.47,-3.46 -41.6,-10.42 -12.13,-6.91 -21.6,-16.76 -28.4,-29.51 -6.82,-12.75 -10.22,-27.42 -10.22,-44.02 0,-7.43 0.75,-14.97 2.22,-22.65 3.71,-20.54 11.21,-38.75 22.47,-54.59z"/>
  <polygon fill="white" points="6924.26,11994.72 6917.95,12030.37 6639.41,12030.37 6645.72,11994.72 "/>
  <path fill="white" d="M7228.05 12061.2l-21.18 -121.44 -63.86 121.44 85.04 0zm5.57 33.06l-108.07 0 -27.86 52.74 -44.18 0 138.15 -258.49 49.02 0 46.8 258.49 -44.57 0 -9.29 -52.74z"/>
  <path fill="white" d="M7519.03 11956.27c12.75,11.53 19.13,28.04 19.13,49.59 0,5.46 -0.61,12.26 -1.86,20.43l-21.53 120.69 -41.97 0 20.43 -114.37c0.97,-6.93 1.47,-11.89 1.47,-14.86 0,-13.61 -3.78,-24 -11.32,-31.21 -7.56,-7.17 -18.01,-10.76 -31.39,-10.76 -16.09,0 -29.64,4.91 -40.67,14.68 -11.01,9.79 -18,23.82 -20.97,42.15l0 -1.13 -20.43 115.5 -42.35 0 36.04 -204.62 42.33 0 -4.08 23.76c8.4,-8.42 18.37,-15.04 29.89,-19.86 11.52,-4.83 23.46,-7.25 35.85,-7.25 21.54,0 38.68,5.75 51.43,17.26z"/>
  <polygon fill="white" points="7627.65,11942.35 7657.72,12098.34 7745.01,11942.35 7788.82,11942.35 7610.57,12243.19 7566.74,12243.19 7625.78,12143.65 7580.47,11942.35 "/>
  <path fill="white" d="M7844.16 12090.16c-0.5,3.49 -0.74,5.71 -0.74,6.7 0,5.19 1.6,8.98 4.82,11.33 3.22,2.33 8.54,3.52 15.97,3.52l26 0 -6.32 35.29 -33.42 0c-16.35,0 -28.85,-3.28 -37.52,-9.85 -8.67,-6.56 -13,-17.03 -13,-31.39 0,-5.44 0.49,-10.63 1.49,-15.6l20.06 -113.26 -24.14 0 5.94 -34.54 24.51 0 8.92 -50.89 42.69 0 -8.91 50.89 49.4 0 -5.93 34.54 -49.78 0 -20.06 113.26z"/>
  <path fill="white" d="M7968.95 11908.93c-4.21,-4.21 -6.32,-9.53 -6.32,-15.97 0,-8.67 3.28,-16.15 9.85,-22.47 6.56,-6.3 14.04,-9.46 22.46,-9.46 6.69,0 12.08,2.1 16.17,6.31 4.07,4.2 6.13,9.54 6.13,15.97 0,8.67 -3.22,16.15 -9.65,22.47 -6.44,6.31 -13.87,9.46 -22.29,9.46 -6.68,0 -12.14,-2.1 -16.33,-6.31zm32.3 33.42l-36.03 204.64 -42.33 0 36.03 -204.64 42.33 0z"/>
  <path fill="white" d="M8357.04 11956.47c12.87,11.64 19.32,28.1 19.32,49.39 0,5.71 -0.63,12.51 -1.87,20.43l-21.53 120.7 -41.96 0 20.42 -114.38c0.99,-6.93 1.5,-11.89 1.5,-14.86 0,-13.61 -3.79,-24 -11.35,-31.21 -7.54,-7.17 -18.02,-10.76 -31.37,-10.76 -16.1,0 -29.65,4.9 -40.67,14.68 -11.03,9.79 -18.01,23.82 -20.98,42.15l-20.42 114.38 -41.97 0 20.43 -114.38c0.97,-6.93 1.47,-11.89 1.47,-14.86 0,-13.61 -3.78,-24 -11.32,-31.21 -7.56,-7.17 -18.01,-10.76 -31.39,-10.76 -16.1,0 -29.64,4.9 -40.67,14.68 -11.01,9.79 -18,23.82 -20.97,42.15l0 -1.12 -20.43 115.5 -42.35 0 36.04 -204.63 42.33 0 -4.1 23.76c8.18,-8.42 18.02,-15.04 29.54,-19.86 11.5,-4.83 23.44,-7.25 35.83,-7.25 16.33,0 30.39,3.48 42.15,10.4 11.76,6.93 19.99,16.96 24.7,30.07 8.17,-12.38 19.43,-22.21 33.79,-29.52 14.36,-7.31 29.08,-10.96 44.19,-10.96 21.56,0 38.75,5.82 51.63,17.46z"/>
  <path fill="white" d="M8572.07 12018.85c0,-13.6 -4.52,-24.39 -13.56,-32.31 -9.04,-7.93 -20.75,-11.89 -35.1,-11.89 -15.11,0 -28.72,4.83 -40.85,14.5 -12.14,9.65 -20.43,22.78 -24.89,39.36l113.65 0c0.48,-4.44 0.74,-7.67 0.74,-9.67zm20.61 -58.29c15.22,14.35 22.85,33.67 22.85,57.93 0,5.69 -0.62,12.5 -1.86,20.42 -0.99,5.46 -2.74,12.14 -5.21,20.06l-156.35 0c-0.24,1.74 -0.36,4.35 -0.36,7.81 0,14.59 4.51,26.25 13.56,34.91 9.03,8.68 20.85,13 35.46,13 23.03,0 40.74,-9.54 53.1,-28.59l45.69 0c-9.41,18.82 -23.28,34.24 -41.59,46.22 -18.32,12.03 -39.5,18.03 -63.5,18.03 -17.08,0 -32.07,-3.35 -44.94,-10.03 -12.87,-6.68 -22.9,-16.28 -30.08,-28.78 -7.18,-12.5 -10.78,-27.18 -10.78,-44.03 0,-7.17 0.75,-14.83 2.24,-23.02 3.71,-21.04 11.26,-39.56 22.65,-55.51 11.37,-15.99 25.57,-28.3 42.53,-36.97 16.94,-8.65 35.46,-13 55.52,-13 25.5,0 45.87,7.19 61.09,21.56z"/>
  <polygon fill="white" points="8691.27,12096.1 8628.5,12198.61 8601.03,12198.61 8645.22,12096.1 "/>
  <path fill="white" d="M8990.23 12061.2l-21.18 -121.44 -63.86 121.44 85.04 0zm5.57 33.06l-108.07 0 -27.86 52.74 -44.18 0 138.15 -258.49 49.02 0 46.8 258.49 -44.57 0 -9.3 -52.74z"/>
  <path fill="white" d="M9281.21 11956.27c12.75,11.53 19.13,28.04 19.13,49.59 0,5.46 -0.61,12.26 -1.86,20.43l-21.53 120.69 -41.97 0 20.43 -114.37c0.97,-6.93 1.47,-11.89 1.47,-14.86 0,-13.61 -3.78,-24 -11.32,-31.21 -7.56,-7.17 -18.01,-10.76 -31.39,-10.76 -16.1,0 -29.64,4.91 -40.67,14.68 -11.01,9.79 -18,23.82 -20.97,42.15l0 -1.13 -20.43 115.5 -42.35 0 36.04 -204.62 42.33 0 -4.1 23.76c8.42,-8.42 18.39,-15.04 29.91,-19.86 11.51,-4.83 23.46,-7.25 35.85,-7.25 21.54,0 38.68,5.75 51.43,17.26z"/>
  <polygon fill="white" points="9389.85,11942.35 9419.91,12098.34 9507.21,11942.35 9551.01,11942.35 9372.76,12243.19 9328.93,12243.19 9387.97,12143.65 9342.67,11942.35 "/>
  <polygon fill="white" points="9857.77,11942.35 9758.23,12146.99 9713.68,12146.99 9699.57,11995.84 9631.22,12146.99 9586.65,12146.99 9558.8,11942.35 9601.89,11942.35 9616,12106.87 9688.04,11942.35 9732.24,11942.35 9745.24,12106.15 9816.18,11942.35 "/>
  <path fill="white" d="M10045.32 11956.27c12.38,11.53 18.57,27.93 18.57,49.21 0,5.71 -0.61,12.64 -1.86,20.81l-21.53 120.69 -41.98 0 20.44 -114.37c0.97,-6.93 1.47,-11.89 1.47,-14.86 0,-13.61 -3.78,-24 -11.32,-31.21 -7.57,-7.17 -18.02,-10.76 -31.39,-10.76 -16.1,0 -29.64,4.91 -40.67,14.68 -11.01,9.79 -18,23.82 -20.97,42.15l0 -0.75 -20.44 115.12 -42.33 0 48.65 -274.82 42.35 0 -16.72 93.96c8.67,-8.67 18.94,-15.35 30.83,-20.06 11.89,-4.69 24.39,-7.06 37.52,-7.06 20.54,0 37,5.75 49.39,17.26z"/>
  <path fill="white" d="M10259.61 12018.85c0,-13.6 -4.52,-24.39 -13.56,-32.31 -9.04,-7.93 -20.75,-11.89 -35.1,-11.89 -15.11,0 -28.72,4.83 -40.85,14.5 -12.14,9.65 -20.43,22.78 -24.89,39.36l113.65 0c0.48,-4.44 0.74,-7.67 0.74,-9.67zm20.61 -58.29c15.22,14.35 22.85,33.67 22.85,57.93 0,5.69 -0.62,12.5 -1.86,20.42 -0.99,5.46 -2.74,12.14 -5.21,20.06l-156.35 0c-0.24,1.74 -0.37,4.35 -0.37,7.81 0,14.59 4.53,26.25 13.57,34.91 9.03,8.68 20.85,13 35.46,13 23.03,0 40.72,-9.54 53.1,-28.59l45.69 0c-9.41,18.82 -23.28,34.24 -41.59,46.22 -18.32,12.03 -39.5,18.03 -63.5,18.03 -17.1,0 -32.07,-3.35 -44.94,-10.03 -12.87,-6.68 -22.91,-16.28 -30.08,-28.78 -7.18,-12.5 -10.78,-27.18 -10.78,-44.03 0,-7.17 0.75,-14.83 2.24,-23.02 3.71,-21.04 11.26,-39.56 22.65,-55.51 11.37,-15.99 25.57,-28.3 42.53,-36.97 16.94,-8.65 35.46,-13 55.51,-13 25.5,0 45.88,7.19 61.1,21.56z"/>
  <path fill="white" d="M10425.43 11949.41c11.51,-6.92 24.33,-10.4 38.43,-10.4l-7.79 43.82 -10.78 0c-16.33,0 -29.46,4.1 -39.36,12.26 -9.9,8.17 -16.83,22.28 -20.81,42.33l-19.32 109.57 -42.33 0 36.03 -204.64 42.35 0 -6.32 36.02c8.41,-12.36 18.37,-22.03 29.9,-28.96z"/>
  <path fill="white" d="M10631.36 12018.85c0,-13.6 -4.52,-24.39 -13.56,-32.31 -9.04,-7.93 -20.75,-11.89 -35.1,-11.89 -15.11,0 -28.72,4.83 -40.85,14.5 -12.14,9.65 -20.43,22.78 -24.89,39.36l113.65 0c0.48,-4.44 0.74,-7.67 0.74,-9.67zm20.61 -58.29c15.22,14.35 22.85,33.67 22.85,57.93 0,5.69 -0.63,12.5 -1.86,20.42 -0.98,5.46 -2.74,12.14 -5.21,20.06l-156.35 0c-0.24,1.74 -0.36,4.35 -0.36,7.81 0,14.59 4.51,26.25 13.56,34.91 9.03,8.68 20.85,13 35.46,13 23.03,0 40.72,-9.54 53.1,-28.59l45.69 0c-9.42,18.82 -23.28,34.24 -41.6,46.22 -18.32,12.03 -39.5,18.03 -63.5,18.03 -17.08,0 -32.07,-3.35 -44.94,-10.03 -12.88,-6.68 -22.91,-16.28 -30.09,-28.78 -7.18,-12.5 -10.78,-27.18 -10.78,-44.03 0,-7.17 0.75,-14.83 2.24,-23.02 3.71,-21.04 11.26,-39.56 22.65,-55.51 11.37,-15.99 25.57,-28.3 42.53,-36.97 16.94,-8.65 35.46,-13 55.51,-13 25.5,0 45.87,7.19 61.1,21.56z"/>
  <path fill="white" d="M10695.59 12143.28c-4.21,-4.2 -6.32,-9.54 -6.32,-15.97 0,-8.67 3.28,-16.15 9.85,-22.47 6.56,-6.31 14.06,-9.46 22.47,-9.46 6.68,0 12.07,2.1 16.15,6.31 4.09,4.21 6.13,9.54 6.13,15.96 0,8.68 -3.22,16.17 -9.65,22.49 -6.44,6.3 -13.86,9.46 -22.29,9.46 -6.68,0 -12.12,-2.11 -16.33,-6.31z"/>
  <path fill="#1E1E1E" d="M2869.69 11899.16c-6.25,16.18 -11.37,32.67 -15.37,49.81l-2028.54 0 0 -49.81 2043.92 0z"/>
  <path fill="#1E1E1E" d="M2847.11 11984.52c-2.56,16.33 -4.32,32.98 -4.81,49.8l-2016.53 0 0 -49.8 2021.33 0z"/>
  <path fill="#1E1E1E" d="M2847.11 12119.69l-2021.33 0 0 -49.8 2016.53 0c0.49,16.82 2.25,33.47 4.81,49.8z"/>
  <path fill="#1E1E1E" d="M2869.69 12205.06l-2043.92 0 0 -49.97 2028.54 0c4,17.14 9.13,33.79 15.37,49.97z"/>
  <path fill="#1E1E1E" d="M13121.49 11899.16l0 49.81 -2033.67 0c-4.01,-17.14 -9.14,-33.63 -15.37,-49.81l2049.04 0z"/>
  <path fill="#1E1E1E" d="M13121.49 11984.52l0 49.8 -2021.65 0c-0.48,-16.82 -2.25,-33.47 -4.81,-49.8l2026.46 0z"/>
  <path fill="#1E1E1E" d="M13121.49 12069.89l0 49.81 -2026.46 0c2.56,-16.33 4.32,-32.99 4.81,-49.81l2021.65 0z"/>
  <path fill="#1E1E1E" d="M13121.49 12155.09l0 49.97 -2049.04 0c6.24,-16.18 11.36,-32.83 15.37,-49.97l2033.67 0z"/>
 </g>
</svg>